<?xml version="1.0" encoding="UTF-8" standalone="no"?>
<!-- Created with Inkscape (http://www.inkscape.org/) -->

<svg
   width="48"
   height="48"
   viewBox="0 0 48 48"
   version="1.1"
   id="svg5"
   xml:space="preserve"
   xmlns="http://www.w3.org/2000/svg"
   xmlns:svg="http://www.w3.org/2000/svg"><defs
     id="defs2"><clipPath
       clipPathUnits="userSpaceOnUse"
       id="clipPath319"><rect
         style="fill:none"
         id="rect321"
         width="20.518764"
         height="19.302238"
         x="13.706215"
         y="8.5156946"
         ry="0.08110185" /></clipPath></defs><g
     id="layer2"
     style="display:inline"><g
       id="g539"
       style="display:inline;fill:#000000;fill-opacity:1"><path
         style="display:inline;fill:#000000;fill-opacity:1"
         d="m 23.742567,5.8635151 -0.02024,4.4972469 -0.785674,-0.243306 0.02707,32.149844 1.14762,0.443835 1.167226,-0.455905 -0.02042,-32.112429 -0.755261,0.233167 V 6.7770736 Z"
         id="path385" /><path
         style="fill:#000000;fill-opacity:1"
         d="m 28.361611,11.926903 -2.455361,1.29966 0.01172,28.742187 2.460937,-1.664063 z"
         id="path483" /><path
         style="fill:#000000;fill-opacity:1"
         d="m 19.795297,11.926474 2.455361,1.29966 -0.01172,28.742187 -2.460937,-1.664063 z"
         id="path483-9" /><path
         style="fill:#000000;fill-opacity:1"
         d="m 19.179687,17.3125 -2.480468,-1.078125 0.06251,19.292968 -1.806997,-1.253484 -0.95197,-0.660367 -0.951971,-0.660367 c -0.843542,-0.596241 -0.742685,-0.965645 -0.349394,-1.320352 0.08594,-0.0625 3.048617,-2.148398 3.048617,-2.148398 v -2.503906 l -4.46875,3.34375 c -2.5671297,1.948818 0.222283,4.468571 3.315673,6.586808 1.712268,1.172496 3.517672,2.221971 4.559327,2.983504 z"
         id="path507" /><path
         style="fill:#000000;fill-opacity:1"
         d="m 28.983345,17.295758 2.480468,-1.078125 -0.06251,19.292968 1.806997,-1.253484 0.95197,-0.660367 0.951971,-0.660367 c 0.843542,-0.596241 0.742685,-0.965645 0.349394,-1.320352 -0.08594,-0.0625 -3.048617,-2.148398 -3.048617,-2.148398 v -2.503906 l 4.46875,3.34375 c 2.567129,1.948818 -0.222283,4.468571 -3.315673,6.586808 -1.712268,1.172496 -3.517672,2.221971 -4.559327,2.983504 z"
         id="path507-9" /><path
         style="fill:#000000;fill-opacity:1"
         d="M 11.288397,34.123775 Z"
         id="path509" /></g></g></svg>
